<?xml version="1.0" encoding="UTF-8"?>
<svg id="Layer_1" xmlns="http://www.w3.org/2000/svg" viewBox="0 0 456.86 76.65">
  <defs>
    <style>
      .cls-1 {
        letter-spacing: .56em;
      }

      .cls-1, .cls-2, .cls-3, .cls-4, .cls-5, .cls-6, .cls-7, .cls-8, .cls-9 {
        fill: #fff;
      }

      .cls-2 {
        letter-spacing: .51em;
      }

      .cls-3 {
        letter-spacing: .49em;
      }

      .cls-4, .cls-10 {
        letter-spacing: .73em;
      }

      .cls-5 {
        letter-spacing: .62em;
      }

      .cls-6, .cls-11 {
        letter-spacing: .57em;
      }

      .cls-7 {
        letter-spacing: .55em;
      }

      .cls-12 {
        font-family: Asphalt-Black, Asphalt;
        font-size: 26.2px;
        font-weight: 800;
      }

      .cls-13 {
        stroke: #231f20;
        stroke-miterlimit: 10;
        stroke-width: 4px;
      }

      .cls-13, .cls-14, .cls-15, .cls-16, .cls-10, .cls-17, .cls-11, .cls-18 {
        fill: #231f20;
      }

      .cls-14 {
        letter-spacing: .75em;
      }

      .cls-15 {
        letter-spacing: .62em;
      }

      .cls-16 {
        letter-spacing: .51em;
      }

      .cls-17 {
        letter-spacing: .51em;
      }

      .cls-18 {
        letter-spacing: .57em;
      }

      .cls-9 {
        letter-spacing: .44em;
      }
    </style>
  </defs>
  <rect class="cls-13" x="2" y="2" width="387.66" height="71.16"/>
  <rect class="cls-8" x="2" y="2" width="38.77" height="35.58"/>
  <rect class="cls-8" x="40.77" y="37.58" width="38.77" height="35.58"/>
  <rect class="cls-8" x="79.53" y="2" width="38.77" height="35.58"/>
  <rect class="cls-8" x="118.3" y="37.58" width="38.77" height="35.58"/>
  <rect class="cls-8" x="157.06" y="2" width="38.77" height="35.58"/>
  <rect class="cls-8" x="195.83" y="37.58" width="38.77" height="35.58"/>
  <rect class="cls-8" x="234.59" y="2" width="38.77" height="35.58"/>
  <rect class="cls-8" x="273.36" y="37.58" width="38.77" height="35.58"/>
  <rect class="cls-8" x="312.12" y="2" width="38.77" height="35.58"/>
  <rect class="cls-8" x="350.89" y="37.58" width="38.77" height="35.58"/>
  <text class="cls-12" transform="translate(6.67 28.34) scale(1.09 1)"><tspan class="cls-15" x="0" y="0">C</tspan><tspan class="cls-5" x="36.57" y="0">H</tspan><tspan class="cls-15" x="76.21" y="0">R</tspan><tspan class="cls-5" x="116.09" y="0">I</tspan><tspan class="cls-15" x="144.17" y="0">S</tspan><tspan class="cls-5" x="181.11" y="0">T</tspan><tspan class="cls-14" x="217.92" y="0">I</tspan><tspan class="cls-2" x="249.42" y="0">A</tspan><tspan class="cls-16" x="285.44" y="0">N</tspan><tspan class="cls-9" x="322.64" y="0">S</tspan></text>
  <text class="cls-12" transform="translate(8.18 64.39) scale(1.09 1)"><tspan class="cls-1" x="0" y="0">P</tspan><tspan class="cls-17" x="37.36" y="0">O</tspan><tspan class="cls-3" x="74.22" y="0">R</tspan><tspan class="cls-11" x="110.56" y="0">T</tspan><tspan class="cls-7" x="145.96" y="0">F</tspan><tspan class="cls-11" x="180.25" y="0">O</tspan><tspan class="cls-6" x="218.71" y="0">L</tspan><tspan class="cls-10" x="252.22" y="0">I</tspan><tspan class="cls-4" x="283.08" y="0">O</tspan><tspan class="cls-18" x="325.74" y="0">!</tspan></text>
</svg>